<?xml version="1.0" encoding="UTF-8"?>
<svg id="Layer_2" data-name="Layer 2" xmlns="http://www.w3.org/2000/svg" version="1.1" viewBox="0 0 383.6 78.9">
  <defs>
    <style>
      .cls-1 {
        fill: #000;
        stroke-width: 0px;
      }
    </style>
  </defs>
  <g id="Layer_1-2" data-name="Layer 1-2">
    <g>
      <path class="cls-1" d="M55,69.9V15.7h-17.8c-3,12.4-13,13.6-23.8,14v14.8h20.8v27.3c-.8.2-1.7.7-2.6.6C10.6,70.1.6,55.9,0,40-.6,20,11,5.9,33.7,4c7.4-.6,14.7,0,21.6,2.7,12.8,4.9,20,14.2,20.4,28,.2,5.5-.4,11.4-1.9,16.7-2.6,8.8-8.9,14.5-18.8,18.5h0Z"/>
      <path class="cls-1" d="M312.9,55c-7.5,5.4-15.5,5.9-23.8,4.3-11.6-2.2-19-10.8-19-22.2,0-11.2,7.6-20.1,19.1-22.2,8.1-1.5,15.9-1,23.2,4,.9-1,1.7-1.9,2.6-2.8h12.1c.2,1.6.5,2.9.5,4.2,0,12.2,0,24.3,0,36.5,0,1.8-.4,3.6-.5,5.5-.5,6.3-4.1,10.7-9.6,13-4.5,1.8-9.5,2.9-14.4,3.4-6.8.7-13.7.5-20.1-2.2-5.1-2.1-8.4-5.7-8.6-12.3h13.1c4.4,5.3,16.2,7.1,22.4,3.1,3.4-2.2,4.6-6.3,3.1-12.1h0ZM299.6,24.2c-7.8,0-12.9,3.6-14.3,10.3-1.3,6,1.6,11.9,7.2,14.4,6.6,3,15.3,1.2,19-4.1.8-1.2,1.5-2.6,1.8-4,2.4-9.3-3.6-16.6-13.7-16.6h0Z"/>
      <path class="cls-1" d="M191.9,48.1c-1.4,5-4.4,8.4-8.3,10.7-11.3,6.8-23.2,6.9-34.8,1-8.9-4.5-12-13-11.5-22.7.5-9.4,4.7-16.6,13.6-20.4,9.6-4.1,19.5-4.1,29.1,0,9.6,4.1,15.3,15.6,12.6,25.6h-38.8c-.4,5.6,1.6,9,5.9,11,5.9,2.7,12.1,1,17.9-5.1h14.4,0ZM177.6,32.7c-1.1-6.9-5.7-10.3-12.5-9.9-6.6.3-10.6,3.9-10.9,9.9h23.4Z"/>
      <path class="cls-1" d="M247.9,28.3h-12.7c-7.4-7.5-18.6-8-22.5-.9.7,3.5,3.7,3.9,6.4,4.3,3.8.6,7.6.8,11.4,1.2,2.6.3,5.3.5,7.9,1,6.4,1.3,10.3,5.1,11.1,10.6.8,6.3-1.1,11.5-6.6,15-.6.4-1.1.7-1.8,1-12,4.5-24.1,4.7-36-.2-5.6-2.3-7.9-6.4-8-12.3h13.2c4.8,5.8,14.5,8,21.3,5.1,2.3-1,4.1-2.4,3-6.1-1.4-.5-3.1-1.4-4.9-1.7-5.6-.7-11.3-1-16.9-1.9-2.9-.4-6-1.2-8.5-2.6-8.6-4.9-8.9-17.2-.5-22.4,3.3-2,7.3-3.2,11.2-3.9,8.5-1.4,17-1.2,24.9,2.5,4.5,2.1,8,5.3,7.8,11.3h0Z"/>
      <path class="cls-1" d="M344.9,61.8h-13.3V16.1h12.7c.4,1.8.8,3.5,1.3,5.8,1.8-1.2,3-2.2,4.4-3.1,6.9-4.9,14.5-5.6,22.4-3.3,6.6,1.9,10.8,6.5,11.1,13.3.5,10.8.1,21.6.1,32.9h-13.4c0-2.8,0-5.2,0-7.7-.2-6.8,0-13.7-.8-20.4-.6-5.9-3.6-8.1-9.4-8.3-9.3-.3-14.8,4.7-15,14.1-.2,5.5,0,11,0,16.5v5.9h0Z"/>
      <path class="cls-1" d="M82.4,15.9h12.7c.4,1.9.8,3.6,1.3,5.9,1.7-1.2,2.9-2.1,4.3-3,7.2-5.1,15.1-5.7,23.3-3,5.6,1.9,9.5,5.8,9.9,12,.6,11.1.8,22.2,1.1,33.9h-13.8c-.1-2.7-.3-5.2-.4-7.6-.1-6,0-12-.4-18-.5-7.3-2.8-10-8.2-10.7-7.4-.9-13.4,2-15.5,8.1-.8,2.3-1,4.9-1,7.3-.1,6.8,0,13.6,0,20.9h-13.4V15.9h0Z"/>
      <path class="cls-1" d="M253.5,16h12.8v45.8h-12.8V16h0Z"/>
      <path class="cls-1" d="M253.5,9.2V0h12.8v9.2h-12.8Z"/>
    </g>
  </g>
</svg>